<?xml version="1.0" encoding="UTF-8" standalone="no"?>
<!-- Created with Inkscape (http://www.inkscape.org/) -->
<svg
   xmlns:svg="http://www.w3.org/2000/svg"
   xmlns="http://www.w3.org/2000/svg"
   version="1.0"
   width="127.27231"
   height="77.999474"
   id="svg2">
  <defs
     id="defs5" />
  <path
     d="M 5.9910597,0.03072714 C 5.2251307,0.29293814 4.9364217,2.2469371 5.3035597,5.8119771 C 5.6292427,8.9744771 6.1659907,12.461977 6.4910597,13.561977 C 6.8751657,14.861751 5.8257037,17.62139 3.5223097,21.436977 C -0.49224731,28.087118 -1.0744393,30.599174 1.7723097,34.218227 C 4.3414137,37.484313 11.056044,38.720008 14.39731,36.530727 C 17.626836,34.41466 18.99106,35.658552 18.99106,38.311977 C 18.99106,41.298611 21.659577,46.023929 26.11606,50.936977 C 29.942583,55.155526 31.99106,61.111938 31.99106,67.968227 L 31.99106,71.999477 L 7.3348097,72.030727 L 7.0223097,77.999477 L 127.20981,77.811977 L 127.27231,71.530727 L 97.45981,71.655727 C 94.9236,71.667766 98.65687,37.989914 99.83481,36.811977 C 100.44945,36.197332 101.25722,36.710463 102.05356,38.218227 C 103.5801,41.108503 112.69145,53.42379 115.70981,56.686977 C 118.51759,59.7225 119.56482,58.220018 120.99106,56.561977 C 122.72073,54.551201 121.59362,52.026149 116.70981,49.530727 C 111.06423,46.646071 107.78024,41.732664 103.42856,28.280727 C 102.35801,24.971435 101.23125,21.994983 100.27231,19.811977 C 99.3597,17.734445 98.12323,15.788214 97.77231,15.405727 C 97.36509,14.961874 92.60186,13.331266 84.24106,14.593227 C 78.11179,15.518365 70.89084,14.902569 62.49106,14.780727 C 20.046434,14.165052 13.745649,12.898642 9.5535597,4.3432271 C 8.0049107,1.1826711 6.7569887,-0.23148386 5.9910597,0.03072714 z M 82.36606,46.999477 C 84.48281,47.124293 85.14764,49.104417 86.52231,53.061977 C 87.7641,56.636977 89.07516,62.343772 89.45981,65.749477 L 90.17856,71.936977 L 39.70981,72.093227 L 40.36606,66.468227 C 41.436294,57.3622 41.800802,57.061977 51.08481,57.061977 C 58.65572,57.061977 59.67222,56.786106 69.49106,52.061977 C 76.66851,48.6087 80.24931,46.874661 82.36606,46.999477 z"
     id="path2404"
     style="fill:#000000" />
  <path
     d="M 15.64731,16.124477 C 15.246652,16.161255 14.784264,16.380106 14.17856,16.749477 C 13.108438,17.402058 11.337669,17.692497 10.24106,17.405727 C 8.7297867,17.01052 7.9010727,17.62997 6.8660597,19.968227 C 6.1150327,21.664916 3.5942167,26.468631 3.2211317,26.468631 C 2.1564867,26.468631 2.1558527,29.884457 2.3660597,31.561977 C 2.7644147,34.740983 10.946564,37.340467 15.39731,34.468227 C 17.203189,33.302823 17.471348,30.446884 15.49106,29.686977 C 13.272256,28.835542 13.665087,26.328412 16.49106,23.280727 C 19.41556,20.126784 19.433023,20.034597 17.55356,17.499477 C 16.806889,16.492327 16.315073,16.06318 15.64731,16.124477 z M 68.89046,17.31 C 67.98891,17.886153 67.99106,20.068329 67.99106,20.905727 C 67.99106,21.287756 65.71384,23.082326 62.92856,24.905727 C 57.250519,28.622896 54.494661,32.441388 53.61606,37.874477 C 53.009884,41.622965 49.860471,45.793852 45.39731,48.718227 C 40.43566,51.969227 44.656393,54.177568 54.70981,53.624477 C 58.71136,53.404334 62.18011,52.563285 64.45981,51.218227 C 68.50926,48.82899 80.08277,44.061977 81.83481,44.061977 C 82.47916,44.061977 82.99106,43.48612 82.99106,42.780727 C 82.99106,41.932193 81.24593,41.429147 77.83481,41.280727 C 74.99912,41.157344 72.07412,40.550546 71.33481,39.936977 C 68.47729,37.565447 70.57072,29.724502 74.95981,26.405727 C 79.07397,23.294834 80.99106,21.170592 80.99106,19.686977 C 80.99106,18.446025 83.0482,17.194579 81.18208,16.97919 C 72.7648,16.870089 72.90863,16.710063 68.89046,17.31 z M 22.95981,31.843227 C 21.812401,31.812457 21.37415,32.47888 21.14731,34.468227 C 20.787068,37.627468 22.061148,40.707913 25.80356,45.874477 C 28.291377,49.309018 29.904819,49.658413 28.14731,46.374477 C 27.468833,45.106731 27.506404,43.150202 28.27231,40.280727 C 29.275245,36.523214 29.20102,35.822924 27.45981,34.124477 C 26.381873,33.073011 24.59106,32.053728 23.49106,31.874477 C 23.295897,31.842674 23.123726,31.847623 22.95981,31.843227 z M 115.02699,51.532286 C 115.2423,54.412957 118.26184,58.13246 119.38288,55.78581 C 120.86536,52.682561 117.89701,52.542296 115.02699,51.532286 z M 89.47858,56.535239 C 89.76967,57.704096 91.17515,62.586977 91.52231,65.061977 C 92.35505,70.998898 91.29461,72.061977 92.52543,72.061977 L 95.23426,71.907392 C 95.41645,70.797138 94.98711,67.62096 94.99106,65.811977 C 94.99856,62.374477 94.89617,58.61646 95.20446,57.468227 L 89.47858,56.535239 z M 33.073084,58.627596 C 32.564902,58.627596 33.163299,61.677237 33.943001,64.693555 C 34.765639,67.875979 33.648171,71.977489 34.436762,71.965108 L 37.399478,71.918594 C 38.525837,71.90091 38.702605,64.938168 38.431102,62.762936 C 38.222943,61.095214 34.842249,59.476989 33.073084,58.627596 z"
     id="path2402"
     style="fill:#ffffff;fill-opacity:1" />
  <path
     d="M 9.5449107,22.149109 C 8.5046187,20.465883 9.9761067,18.647024 11.303928,19.974845 C 12.086771,20.757688 12.086771,21.366266 11.303928,22.149109 C 10.521085,22.931952 10.028734,22.931952 9.5449107,22.149109 z"
     id="path2388"
     style="fill:#000000" />
  <path
     d="M 13.393131,14.220429 C 13.679189,13.757578 11.588094,12.382467 10.337127,9.9704291 C 5.5512917,0.74267814 6.4433247,5.1702791 7.5190847,9.0619771 C 7.9019017,10.446865 9.0023387,12.88737 10.107819,13.84987 C 12.418178,15.861414 12.693945,15.351736 13.393131,14.220429 z"
     id="path2384"
     style="fill:#efcd74;fill-opacity:1" />
</svg>
